<svg data-v-423bf9ae="" xmlns="http://www.w3.org/2000/svg" viewBox="0 0 383.63819186796627 185" class="iconAbove"><!----><!----><!----><g data-v-423bf9ae="" id="9e2241b7-4d7f-4c2a-b63f-1c6653a284d4" fill="#000000" transform="matrix(6.0301508693628145,0,0,6.0301508693628145,-2.894470470535225,107.28699428330003)"><path d="M3.79 12.61L3.79 3.67L0.48 3.67L0.48 2.95L8.05 2.95L8.05 3.67L4.73 3.67L4.73 12.61L3.79 12.61ZM10.02 12.61L10.02 2.95L16.24 2.95L16.24 3.72L10.94 3.72L10.94 7.40L15.47 7.40L15.47 8.14L10.94 8.14L10.94 11.78L16.24 11.78L16.24 12.61L10.02 12.61ZM22.12 12.74L22.12 12.74Q20.73 12.74 19.79 12.08L19.79 12.08L19.79 12.08Q18.84 11.42 18.37 10.29L18.37 10.29L18.37 10.29Q17.90 9.16 17.90 7.75L17.90 7.75L17.90 7.75Q17.90 6.35 18.36 5.23L18.36 5.23L18.36 5.23Q18.83 4.12 19.80 3.45L19.80 3.45L19.80 3.45Q20.77 2.79 22.23 2.79L22.23 2.79L22.23 2.79Q23.59 2.79 24.55 3.40L24.55 3.40L24.55 3.40Q25.52 4.02 26.00 5.31L26.00 5.31L25.16 5.69L25.16 5.69Q24.87 4.60 24.04 4.12L24.04 4.12L24.04 4.12Q23.21 3.63 22.18 3.63L22.18 3.63L22.18 3.63Q21.01 3.63 20.26 4.19L20.26 4.19L20.26 4.19Q19.50 4.75 19.16 5.68L19.16 5.68L19.16 5.68Q18.81 6.60 18.81 7.75L18.81 7.75L18.81 7.75Q18.81 8.90 19.16 9.84L19.16 9.84L19.16 9.84Q19.52 10.78 20.28 11.34L20.28 11.34L20.28 11.34Q21.04 11.91 22.20 11.91L22.20 11.91L22.20 11.91Q23.22 11.91 24.00 11.42L24.00 11.42L24.00 11.42Q24.77 10.93 25.17 9.83L25.17 9.83L26.01 10.21L26.01 10.21Q25.47 11.43 24.48 12.09L24.48 12.09L24.48 12.09Q23.49 12.74 22.12 12.74L22.12 12.74ZM28.16 12.61L28.16 2.95L29.09 2.95L29.09 7.40L34.13 7.40L34.13 2.95L35.05 2.95L35.05 12.61L34.13 12.61L34.13 8.14L29.09 8.14L29.09 12.61L28.16 12.61ZM38.05 12.61L38.05 2.95L38.97 2.95L38.97 11.78L43.10 11.78L43.10 12.61L38.05 12.61ZM45.09 12.61L45.09 2.95L46.01 2.95L46.01 12.61L45.09 12.61ZM49.01 12.61L49.01 2.95L55.22 2.95L55.22 3.72L49.93 3.72L49.93 7.40L54.46 7.40L54.46 8.14L49.93 8.14L49.93 11.78L55.22 11.78L55.22 12.61L49.01 12.61ZM57.46 12.61L57.46 2.95L58.99 2.95L63.18 11.89L63.18 2.95L64.10 2.95L64.10 12.61L62.55 12.61L58.40 3.64L58.40 12.61L57.46 12.61Z"></path></g><defs data-v-423bf9ae=""><linearGradient data-v-423bf9ae="" gradientTransform="rotate(25)" id="22b00ef5-38ad-45f9-9134-386fbd06eaac" x1="0%" y1="0%" x2="100%" y2="0%"><stop data-v-423bf9ae="" offset="0%" style="stop-color: rgb(102, 108, 53); stop-opacity: 1;"></stop><stop data-v-423bf9ae="" offset="100%" style="stop-color: rgb(119, 214, 54); stop-opacity: 1;"></stop></linearGradient></defs><g data-v-423bf9ae="" id="7b0154f0-a587-4613-a2b6-df394c19b8f9" transform="matrix(1.1111111111111112,0,0,1.1111111111111112,136.44444444444446,0.44444444444444287)" stroke="none" fill="url(#22b00ef5-38ad-45f9-9134-386fbd06eaac)"><switch><g><path d="M50 0C28.4 0 11 17.5 11 39c0 21.6 17.5 61 39 61s39-39.4 39-61C89 17.5 71.6 0 50 0zm-7 73.3s-12 1.2-18.6-5.5-5.5-18.6-5.5-18.6 12-1.2 18.6 5.5c6.6 6.7 5.5 18.6 5.5 18.6zM48.1 91c0 .7-.5 1.2-1.2 1.2s-1.2-.5-1.2-1.2v-3.7c0-.7.5-1.2 1.2-1.2s1.2.5 1.2 1.2V91zm6.2 0c0 .7-.5 1.2-1.2 1.2s-1.2-.5-1.2-1.2v-3.7c0-.7.5-1.2 1.2-1.2s1.2.5 1.2 1.2V91zM57 73.3s-1.2-12 5.5-18.6c6.7-6.7 18.6-5.5 18.6-5.5s1.2 12-5.5 18.6S57 73.3 57 73.3z"></path></g></switch></g><!----></svg>