<svg data-v-423bf9ae="" xmlns="http://www.w3.org/2000/svg" viewBox="0 0 416 112" class="iconLeft"><!----><!----><!----><g data-v-423bf9ae="" id="bb7ff45b-d522-4e33-9ec4-8a789f13ccfc" fill="#0D3721" transform="matrix(5.725190568780254,0,0,5.725190568780254,105.06361341183089,10.784562682460773)"><path d="M7.25 4.33L5.25 4.33L5.25 4.33Q5.22 5.21 5.22 6.10L5.22 6.10L5.22 6.10Q5.22 7 5.22 7.92L5.22 7.92L5.22 8.51L5.22 8.51Q5.22 9.39 5.22 10.28L5.22 10.28L5.22 10.28Q5.22 11.17 5.25 12.07L5.25 12.07L6.59 12.21L6.59 12.85L2.16 12.85L2.16 12.21L3.50 12.07L3.50 12.07Q3.53 11.19 3.53 10.30L3.53 10.30L3.53 10.30Q3.53 9.42 3.53 8.51L3.53 8.51L3.53 7.92L3.53 7.92Q3.53 7.03 3.53 6.13L3.53 6.13L3.53 6.13Q3.53 5.24 3.50 4.33L3.50 4.33L1.50 4.33L1.20 6.13L0.28 6.13L0.36 3.58L8.39 3.58L8.47 6.13L7.55 6.13L7.25 4.33ZM9.94 8.86L12.04 8.86L12.04 8.86Q12.54 8.86 12.72 8.65L12.72 8.65L12.72 8.65Q12.89 8.44 12.89 8.06L12.89 8.06L12.89 8.06Q12.89 7.43 12.54 7.01L12.54 7.01L12.54 7.01Q12.18 6.59 11.65 6.59L11.65 6.59L11.65 6.59Q11.38 6.59 11.10 6.71L11.10 6.71L11.10 6.71Q10.82 6.83 10.58 7.10L10.58 7.10L10.58 7.10Q10.33 7.36 10.16 7.80L10.16 7.80L10.16 7.80Q10.00 8.23 9.94 8.86L9.94 8.86ZM14.29 9.51L9.91 9.51L9.91 9.51Q9.94 10.78 10.53 11.42L10.53 11.42L10.53 11.42Q11.12 12.07 12.05 12.07L12.05 12.07L12.05 12.07Q12.70 12.07 13.13 11.79L13.13 11.79L13.13 11.79Q13.55 11.52 13.90 11.05L13.90 11.05L14.31 11.30L14.31 11.30Q13.99 12.14 13.26 12.60L13.26 12.60L13.26 12.60Q12.53 13.06 11.51 13.06L11.51 13.06L11.51 13.06Q10.77 13.06 10.17 12.82L10.17 12.82L10.17 12.82Q9.58 12.59 9.15 12.13L9.15 12.13L9.15 12.13Q8.72 11.68 8.49 11.03L8.49 11.03L8.49 11.03Q8.26 10.37 8.26 9.55L8.26 9.55L8.26 9.55Q8.26 8.75 8.52 8.09L8.52 8.09L8.52 8.09Q8.78 7.42 9.23 6.94L9.23 6.94L9.23 6.94Q9.69 6.47 10.30 6.20L10.30 6.20L10.30 6.20Q10.92 5.94 11.62 5.94L11.62 5.94L11.62 5.94Q12.24 5.94 12.75 6.14L12.75 6.14L12.75 6.14Q13.26 6.34 13.62 6.71L13.62 6.71L13.62 6.71Q13.99 7.07 14.19 7.60L14.19 7.60L14.19 7.60Q14.39 8.12 14.39 8.76L14.39 8.76L14.39 8.76Q14.39 8.97 14.36 9.16L14.36 9.16L14.36 9.16Q14.34 9.35 14.29 9.51L14.29 9.51ZM21.10 10.99L21.52 11.21L21.52 11.21Q21.24 12.11 20.52 12.59L20.52 12.59L20.52 12.59Q19.81 13.06 18.79 13.06L18.79 13.06L18.79 13.06Q18.05 13.06 17.44 12.82L17.44 12.82L17.44 12.82Q16.84 12.57 16.41 12.12L16.41 12.12L16.41 12.12Q15.99 11.66 15.76 11.00L15.76 11.00L15.76 11.00Q15.53 10.35 15.53 9.52L15.53 9.52L15.53 9.52Q15.53 8.68 15.81 8.02L15.81 8.02L15.81 8.02Q16.09 7.35 16.55 6.89L16.55 6.89L16.55 6.89Q17.02 6.43 17.64 6.18L17.64 6.18L17.64 6.18Q18.26 5.94 18.94 5.94L18.94 5.94L18.94 5.94Q19.46 5.94 19.91 6.08L19.91 6.08L19.91 6.08Q20.37 6.23 20.71 6.48L20.71 6.48L20.71 6.48Q21.06 6.73 21.26 7.08L21.26 7.08L21.26 7.08Q21.46 7.42 21.50 7.83L21.50 7.83L21.50 7.83Q21.38 8.43 20.76 8.43L20.76 8.43L20.76 8.43Q19.99 8.43 19.89 7.52L19.89 7.52L19.74 6.68L19.74 6.68Q19.45 6.59 19.15 6.59L19.15 6.59L19.15 6.59Q18.73 6.59 18.38 6.78L18.38 6.78L18.38 6.78Q18.02 6.96 17.75 7.31L17.75 7.31L17.75 7.31Q17.47 7.66 17.32 8.17L17.32 8.17L17.32 8.17Q17.16 8.68 17.16 9.34L17.16 9.34L17.16 9.34Q17.16 10.70 17.77 11.38L17.77 11.38L17.77 11.38Q18.37 12.07 19.29 12.07L19.29 12.07L19.29 12.07Q20.44 12.07 21.10 10.99L21.10 10.99ZM29.01 12.11L29.89 12.29L29.89 12.85L26.47 12.85L26.47 12.29L27.43 12.11L27.43 12.11Q27.44 11.59 27.44 10.99L27.44 10.99L27.44 10.99Q27.44 10.39 27.44 9.91L27.44 9.91L27.44 8.62L27.44 8.62Q27.44 7.74 27.22 7.37L27.22 7.37L27.22 7.37Q27.01 7 26.46 7L26.46 7L26.46 7Q26.01 7 25.58 7.22L25.58 7.22L25.58 7.22Q25.16 7.43 24.68 7.88L24.68 7.88L24.68 9.91L24.68 9.91Q24.68 10.37 24.68 10.98L24.68 10.98L24.68 10.98Q24.68 11.59 24.70 12.11L24.70 12.11L25.58 12.29L25.58 12.85L22.16 12.85L22.16 12.29L23.11 12.11L23.11 12.11Q23.13 11.58 23.13 10.98L23.13 10.98L23.13 10.98Q23.13 10.37 23.13 9.91L23.13 9.91L23.13 4.00L22.02 3.86L22.02 3.33L24.50 2.70L24.70 2.81L24.64 4.80L24.64 7.18L24.64 7.18Q25.21 6.55 25.79 6.24L25.79 6.24L25.79 6.24Q26.36 5.94 27.06 5.94L27.06 5.94L27.06 5.94Q28.01 5.94 28.50 6.53L28.50 6.53L28.50 6.53Q28.99 7.13 28.99 8.46L28.99 8.46L28.99 9.91L28.99 9.91Q28.99 10.39 28.99 10.99L28.99 10.99L28.99 10.99Q28.99 11.59 29.01 12.11L29.01 12.11ZM33.24 12.11L34.17 12.29L34.17 12.85L30.66 12.85L30.66 12.29L31.64 12.11L31.64 12.11Q31.65 11.55 31.66 11.00L31.66 11.00L31.66 11.00Q31.67 10.46 31.67 9.91L31.67 9.91L31.67 4.00L30.56 3.86L30.56 3.33L33.07 2.70L33.26 2.81L33.21 4.80L33.21 9.91L33.21 9.91Q33.21 10.46 33.21 11.01L33.21 11.01L33.21 11.01Q33.22 11.56 33.24 12.11L33.24 12.11ZM36.74 4.59L36.74 4.59L36.74 4.59Q36.29 4.59 35.98 4.31L35.98 4.31L35.98 4.31Q35.67 4.03 35.67 3.58L35.67 3.58L35.67 3.58Q35.67 3.14 35.98 2.86L35.98 2.86L35.98 2.86Q36.29 2.58 36.74 2.58L36.74 2.58L36.74 2.58Q37.18 2.58 37.48 2.86L37.48 2.86L37.48 2.86Q37.79 3.14 37.79 3.58L37.79 3.58L37.79 3.58Q37.79 4.03 37.48 4.31L37.48 4.31L37.48 4.31Q37.18 4.59 36.74 4.59ZM37.55 12.11L38.43 12.29L38.43 12.85L35.01 12.85L35.01 12.29L35.97 12.11L35.97 12.11Q35.98 11.58 35.98 10.98L35.98 10.98L35.98 10.98Q35.98 10.37 35.98 9.91L35.98 9.91L35.98 9.21L35.98 9.21Q35.98 8.64 35.97 8.25L35.97 8.25L35.97 8.25Q35.95 7.87 35.94 7.45L35.94 7.45L34.92 7.32L34.92 6.80L37.37 5.94L37.58 6.08L37.53 8.02L37.53 9.91L37.53 9.91Q37.53 10.37 37.53 10.98L37.53 10.98L37.53 10.98Q37.53 11.59 37.55 12.11L37.55 12.11ZM41.01 8.86L43.11 8.86L43.11 8.86Q43.61 8.86 43.78 8.65L43.78 8.65L43.78 8.65Q43.96 8.44 43.96 8.06L43.96 8.06L43.96 8.06Q43.96 7.43 43.60 7.01L43.60 7.01L43.60 7.01Q43.25 6.59 42.71 6.59L42.71 6.59L42.71 6.59Q42.45 6.59 42.17 6.71L42.17 6.71L42.17 6.71Q41.89 6.83 41.64 7.10L41.64 7.10L41.64 7.10Q41.40 7.36 41.23 7.80L41.23 7.80L41.23 7.80Q41.06 8.23 41.01 8.86L41.01 8.86ZM45.36 9.51L40.98 9.51L40.98 9.51Q41.01 10.78 41.59 11.42L41.59 11.42L41.59 11.42Q42.18 12.07 43.12 12.07L43.12 12.07L43.12 12.07Q43.76 12.07 44.19 11.79L44.19 11.79L44.19 11.79Q44.62 11.52 44.97 11.05L44.97 11.05L45.37 11.30L45.37 11.30Q45.05 12.14 44.32 12.60L44.32 12.60L44.32 12.60Q43.60 13.06 42.57 13.06L42.57 13.06L42.57 13.06Q41.83 13.06 41.24 12.82L41.24 12.82L41.24 12.82Q40.64 12.59 40.21 12.13L40.21 12.13L40.21 12.13Q39.79 11.68 39.56 11.03L39.56 11.03L39.56 11.03Q39.33 10.37 39.33 9.55L39.33 9.55L39.33 9.55Q39.33 8.75 39.58 8.09L39.58 8.09L39.58 8.09Q39.84 7.42 40.30 6.94L40.30 6.94L40.30 6.94Q40.75 6.47 41.37 6.20L41.37 6.20L41.37 6.20Q41.99 5.94 42.69 5.94L42.69 5.94L42.69 5.94Q43.30 5.94 43.81 6.14L43.81 6.14L43.81 6.14Q44.32 6.34 44.69 6.71L44.69 6.71L44.69 6.71Q45.05 7.07 45.25 7.60L45.25 7.60L45.25 7.60Q45.46 8.12 45.46 8.76L45.46 8.76L45.46 8.76Q45.46 8.97 45.43 9.16L45.43 9.16L45.43 9.16Q45.40 9.35 45.36 9.51L45.36 9.51ZM53.38 12.11L54.28 12.29L54.28 12.85L50.86 12.85L50.86 12.29L51.80 12.11L51.80 12.11Q51.81 11.59 51.81 10.99L51.81 10.99L51.81 10.99Q51.81 10.39 51.81 9.91L51.81 9.91L51.81 8.62L51.81 8.62Q51.81 7.74 51.60 7.37L51.60 7.37L51.60 7.37Q51.38 7 50.83 7L50.83 7L50.83 7Q50.39 7 49.97 7.22L49.97 7.22L49.97 7.22Q49.55 7.43 49.08 7.87L49.08 7.87L49.08 9.91L49.08 9.91Q49.08 10.37 49.08 10.98L49.08 10.98L49.08 10.98Q49.08 11.58 49.10 12.11L49.10 12.11L49.99 12.29L49.99 12.85L46.56 12.85L46.56 12.29L47.52 12.11L47.52 12.11Q47.53 11.58 47.53 10.98L47.53 10.98L47.53 10.98Q47.53 10.37 47.53 9.91L47.53 9.91L47.53 9.16L47.53 9.16Q47.53 8.58 47.52 8.23L47.52 8.23L47.52 8.23Q47.50 7.87 47.49 7.45L47.49 7.45L46.47 7.32L46.47 6.80L48.72 5.94L48.93 6.08L49.04 7.20L49.04 7.20Q49.60 6.57 50.17 6.25L50.17 6.25L50.17 6.25Q50.74 5.94 51.44 5.94L51.44 5.94L51.44 5.94Q52.40 5.94 52.88 6.53L52.88 6.53L52.88 6.53Q53.37 7.13 53.37 8.46L53.37 8.46L53.37 9.91L53.37 9.91Q53.37 10.39 53.37 10.99L53.37 10.99L53.37 10.99Q53.37 11.59 53.38 12.11L53.38 12.11Z"></path></g><defs data-v-423bf9ae=""><linearGradient data-v-423bf9ae="" gradientTransform="rotate(25)" id="e4615836-556f-41eb-be92-0121e03c4bfc" x1="0%" y1="0%" x2="100%" y2="0%"><stop data-v-423bf9ae="" offset="0%" style="stop-color: rgb(8, 91, 32); stop-opacity: 1;"></stop><stop data-v-423bf9ae="" offset="100%" style="stop-color: rgb(65, 226, 150); stop-opacity: 1;"></stop></linearGradient></defs><g data-v-423bf9ae="" id="327c1ec1-9462-4a34-b955-adabd0d5993b" transform="matrix(1.1111111111111112,0,0,1.1111111111111112,-11.555555555555557,0.44444444444444287)" stroke="none" fill="url(#e4615836-556f-41eb-be92-0121e03c4bfc)"><switch><g><path d="M50 0C28.4 0 11 17.5 11 39c0 21.6 17.5 61 39 61s39-39.4 39-61C89 17.5 71.6 0 50 0zm-7 73.3s-12 1.2-18.6-5.5-5.5-18.6-5.5-18.6 12-1.2 18.6 5.5c6.6 6.7 5.5 18.6 5.5 18.6zM48.1 91c0 .7-.5 1.2-1.2 1.2s-1.2-.5-1.2-1.2v-3.7c0-.7.5-1.2 1.2-1.2s1.2.5 1.2 1.2V91zm6.2 0c0 .7-.5 1.2-1.2 1.2s-1.2-.5-1.2-1.2v-3.7c0-.7.5-1.2 1.2-1.2s1.2.5 1.2 1.2V91zM57 73.3s-1.2-12 5.5-18.6c6.7-6.7 18.6-5.5 18.6-5.5s1.2 12-5.5 18.6S57 73.3 57 73.3z"></path></g></switch></g><!----></svg>